<svg width="1200" height="500" viewBox="0 0 1200 500" fill="none" xmlns="http://www.w3.org/2000/svg">
<rect width="1200" height="500" fill="#111111"/>
<path d="M183 434.464C179.025 434.464 175.315 433.404 171.87 431.549L136.623 410.613C131.323 407.698 133.973 406.638 135.563 406.108C142.718 403.723 144.043 403.193 151.464 398.952C152.259 398.422 153.319 398.687 154.114 399.217L181.145 415.383C182.205 415.913 183.53 415.913 184.325 415.383L290.064 354.166C291.124 353.636 291.654 352.576 291.654 351.251V229.081C291.654 227.756 291.124 226.696 290.064 226.166L184.325 165.213C183.265 164.683 181.94 164.683 181.145 165.213L75.4058 226.166C74.3458 226.696 73.8157 228.021 73.8157 229.081V351.251C73.8157 352.311 74.3458 353.636 75.4058 354.166L104.292 370.861C119.928 378.812 129.733 369.536 129.733 360.261V239.681C129.733 238.091 131.058 236.501 132.913 236.501H146.429C148.019 236.501 149.609 237.826 149.609 239.681V360.261C149.609 381.197 138.213 393.387 118.337 393.387C112.242 393.387 107.472 393.387 93.9565 386.762L66.1304 370.861C59.2402 366.886 55 359.466 55 351.516V229.346C55 221.395 59.2402 213.975 66.1304 210L171.87 148.783C178.495 145.072 187.505 145.072 194.13 148.783L299.87 210C306.76 213.975 311 221.395 311 229.346V351.516C311 359.466 306.76 366.886 299.87 370.861L194.13 432.079C190.685 433.669 186.71 434.464 183 434.464ZM215.596 350.455C169.219 350.455 159.679 329.255 159.679 311.234C159.679 309.644 161.004 308.054 162.859 308.054H176.64C178.23 308.054 179.555 309.114 179.555 310.704C181.675 324.749 187.77 331.64 215.861 331.64C238.122 331.64 247.663 326.605 247.663 314.679C247.663 307.789 245.012 302.754 210.296 299.308C181.41 296.393 163.389 290.033 163.389 266.977C163.389 245.511 181.41 232.791 211.621 232.791C245.542 232.791 262.238 244.451 264.358 269.892C264.358 270.687 264.093 271.482 263.563 272.277C263.033 272.807 262.238 273.337 261.443 273.337H247.663C246.337 273.337 245.012 272.277 244.747 270.952C241.567 256.377 233.352 251.607 211.621 251.607C187.24 251.607 184.325 260.087 184.325 266.447C184.325 274.133 187.77 276.518 220.631 280.758C253.228 284.998 268.598 291.093 268.598 313.884C268.333 337.205 249.253 350.455 215.596 350.455Z" fill="#539E43"/>
<path d="M54.8 98.352C56.288 98.352 57.624 98.144 58.808 97.728C59.992 97.312 60.992 96.736 61.808 96C62.64 95.264 63.272 94.4 63.704 93.408C64.152 92.4 64.376 91.304 64.376 90.12C64.376 87.512 63.576 85.504 61.976 84.096C60.376 82.688 57.984 81.984 54.8 81.984H48.488V98.352H54.8ZM54.8 80.04C58.784 80.04 61.784 80.912 63.8 82.656C65.832 84.4 66.848 86.888 66.848 90.12C66.848 91.608 66.568 92.976 66.008 94.224C65.448 95.472 64.648 96.552 63.608 97.464C62.568 98.36 61.304 99.064 59.816 99.576C58.328 100.072 56.656 100.32 54.8 100.32H48.488V114H46.016V80.04H54.8ZM80.6889 89.736C82.4009 89.736 83.9289 90.032 85.2729 90.624C86.6329 91.2 87.7769 92.024 88.7049 93.096C89.6329 94.168 90.3369 95.464 90.8169 96.984C91.3129 98.488 91.5609 100.176 91.5609 102.048C91.5609 103.92 91.3129 105.608 90.8169 107.112C90.3369 108.616 89.6329 109.904 88.7049 110.976C87.7769 112.048 86.6329 112.872 85.2729 113.448C83.9289 114.024 82.4009 114.312 80.6889 114.312C78.9769 114.312 77.4409 114.024 76.0809 113.448C74.7369 112.872 73.5929 112.048 72.6489 110.976C71.7209 109.904 71.0089 108.616 70.5129 107.112C70.0329 105.608 69.7929 103.92 69.7929 102.048C69.7929 100.176 70.0329 98.488 70.5129 96.984C71.0089 95.464 71.7209 94.168 72.6489 93.096C73.5929 92.024 74.7369 91.2 76.0809 90.624C77.4409 90.032 78.9769 89.736 80.6889 89.736ZM80.6889 112.512C82.1129 112.512 83.3529 112.272 84.4089 111.792C85.4809 111.296 86.3689 110.592 87.0729 109.68C87.7929 108.768 88.3289 107.672 88.6809 106.392C89.0329 105.096 89.2089 103.648 89.2089 102.048C89.2089 100.464 89.0329 99.024 88.6809 97.728C88.3289 96.432 87.7929 95.328 87.0729 94.416C86.3689 93.488 85.4809 92.776 84.4089 92.28C83.3529 91.784 82.1129 91.536 80.6889 91.536C79.2649 91.536 78.0169 91.784 76.9449 92.28C75.8889 92.776 75.0009 93.488 74.2809 94.416C73.5769 95.328 73.0409 96.432 72.6729 97.728C72.3209 99.024 72.1449 100.464 72.1449 102.048C72.1449 103.648 72.3209 105.096 72.6729 106.392C73.0409 107.672 73.5769 108.768 74.2809 109.68C75.0009 110.592 75.8889 111.296 76.9449 111.792C78.0169 112.272 79.2649 112.512 80.6889 112.512ZM129.277 90.12L121.309 114H119.605C119.333 114 119.149 113.832 119.053 113.496L112.525 94.104C112.445 93.864 112.373 93.624 112.309 93.384C112.245 93.144 112.189 92.904 112.141 92.664C112.061 93.144 111.941 93.624 111.781 94.104L105.157 113.496C105.061 113.832 104.869 114 104.581 114H102.949L94.9813 90.12H96.7093C96.9333 90.12 97.1173 90.184 97.2613 90.312C97.4053 90.424 97.5013 90.552 97.5493 90.696L103.573 109.536C103.669 109.904 103.757 110.264 103.837 110.616C103.917 110.952 103.981 111.288 104.029 111.624C104.125 111.288 104.221 110.952 104.317 110.616C104.413 110.264 104.525 109.904 104.653 109.536L111.037 90.528C111.149 90.176 111.373 90 111.709 90H112.645C112.997 90 113.229 90.176 113.341 90.528L119.677 109.536C119.789 109.904 119.893 110.256 119.989 110.592C120.085 110.928 120.173 111.264 120.253 111.6C120.317 111.264 120.381 110.928 120.445 110.592C120.525 110.256 120.621 109.904 120.733 109.536L126.805 90.696C126.869 90.52 126.973 90.384 127.117 90.288C127.261 90.176 127.429 90.12 127.621 90.12H129.277ZM150.891 99.648C150.891 98.368 150.707 97.224 150.339 96.216C149.987 95.192 149.483 94.328 148.827 93.624C148.171 92.92 147.387 92.384 146.475 92.016C145.579 91.632 144.587 91.44 143.499 91.44C142.267 91.44 141.163 91.632 140.187 92.016C139.211 92.4 138.363 92.952 137.643 93.672C136.939 94.392 136.371 95.256 135.939 96.264C135.507 97.272 135.219 98.4 135.075 99.648H150.891ZM134.955 101.112V101.568C134.955 103.36 135.163 104.936 135.579 106.296C135.995 107.656 136.587 108.8 137.355 109.728C138.123 110.64 139.051 111.328 140.139 111.792C141.227 112.256 142.443 112.488 143.787 112.488C144.987 112.488 146.027 112.36 146.907 112.104C147.787 111.832 148.523 111.536 149.115 111.216C149.723 110.88 150.203 110.584 150.555 110.328C150.907 110.056 151.163 109.92 151.323 109.92C151.531 109.92 151.691 110 151.803 110.16L152.427 110.928C152.043 111.408 151.531 111.856 150.891 112.272C150.267 112.688 149.563 113.048 148.779 113.352C148.011 113.64 147.179 113.872 146.283 114.048C145.403 114.224 144.515 114.312 143.619 114.312C141.987 114.312 140.499 114.032 139.155 113.472C137.811 112.896 136.659 112.064 135.699 110.976C134.739 109.888 133.995 108.56 133.467 106.992C132.955 105.408 132.699 103.6 132.699 101.568C132.699 99.856 132.939 98.28 133.419 96.84C133.915 95.384 134.619 94.136 135.531 93.096C136.459 92.04 137.587 91.216 138.915 90.624C140.259 90.032 141.779 89.736 143.475 89.736C144.819 89.736 146.067 89.968 147.219 90.432C148.371 90.896 149.371 91.576 150.219 92.472C151.067 93.352 151.731 94.44 152.211 95.736C152.707 97.032 152.955 98.52 152.955 100.2C152.955 100.552 152.907 100.792 152.811 100.92C152.715 101.048 152.555 101.112 152.331 101.112H134.955ZM161.354 95.88C161.722 94.904 162.138 94.04 162.602 93.288C163.082 92.52 163.626 91.872 164.234 91.344C164.858 90.816 165.546 90.416 166.298 90.144C167.066 89.856 167.914 89.712 168.842 89.712C169.338 89.712 169.826 89.76 170.306 89.856C170.786 89.936 171.21 90.088 171.578 90.312L171.386 91.896C171.306 92.152 171.154 92.28 170.93 92.28C170.738 92.28 170.442 92.224 170.042 92.112C169.658 92 169.146 91.944 168.506 91.944C167.578 91.944 166.754 92.088 166.034 92.376C165.33 92.648 164.69 93.064 164.114 93.624C163.554 94.184 163.058 94.88 162.626 95.712C162.21 96.528 161.826 97.472 161.474 98.544V114H159.17V90.12H160.394C160.666 90.12 160.858 90.176 160.97 90.288C161.082 90.4 161.154 90.592 161.186 90.864L161.354 95.88ZM191.532 99.648C191.532 98.368 191.348 97.224 190.98 96.216C190.628 95.192 190.124 94.328 189.468 93.624C188.812 92.92 188.028 92.384 187.116 92.016C186.22 91.632 185.228 91.44 184.14 91.44C182.908 91.44 181.804 91.632 180.828 92.016C179.852 92.4 179.004 92.952 178.284 93.672C177.58 94.392 177.012 95.256 176.58 96.264C176.148 97.272 175.86 98.4 175.716 99.648H191.532ZM175.596 101.112V101.568C175.596 103.36 175.804 104.936 176.22 106.296C176.636 107.656 177.228 108.8 177.996 109.728C178.764 110.64 179.692 111.328 180.78 111.792C181.868 112.256 183.084 112.488 184.428 112.488C185.628 112.488 186.668 112.36 187.548 112.104C188.428 111.832 189.164 111.536 189.756 111.216C190.364 110.88 190.844 110.584 191.196 110.328C191.548 110.056 191.804 109.92 191.964 109.92C192.172 109.92 192.332 110 192.444 110.16L193.068 110.928C192.684 111.408 192.172 111.856 191.532 112.272C190.908 112.688 190.204 113.048 189.42 113.352C188.652 113.64 187.82 113.872 186.924 114.048C186.044 114.224 185.156 114.312 184.26 114.312C182.628 114.312 181.14 114.032 179.796 113.472C178.452 112.896 177.3 112.064 176.34 110.976C175.38 109.888 174.636 108.56 174.108 106.992C173.596 105.408 173.34 103.6 173.34 101.568C173.34 99.856 173.58 98.28 174.06 96.84C174.556 95.384 175.26 94.136 176.172 93.096C177.1 92.04 178.228 91.216 179.556 90.624C180.9 90.032 182.42 89.736 184.116 89.736C185.46 89.736 186.708 89.968 187.86 90.432C189.012 90.896 190.012 91.576 190.86 92.472C191.708 93.352 192.372 94.44 192.852 95.736C193.348 97.032 193.596 98.52 193.596 100.2C193.596 100.552 193.548 100.792 193.452 100.92C193.356 101.048 193.196 101.112 192.972 101.112H175.596ZM216.107 95.256C215.195 93.88 214.179 92.912 213.059 92.352C211.955 91.792 210.691 91.512 209.267 91.512C207.859 91.512 206.627 91.768 205.571 92.28C204.515 92.792 203.627 93.52 202.907 94.464C202.203 95.392 201.667 96.512 201.299 97.824C200.947 99.12 200.771 100.552 200.771 102.12C200.771 105.672 201.419 108.288 202.715 109.968C204.027 111.632 205.915 112.464 208.379 112.464C209.947 112.464 211.379 112.056 212.675 111.24C213.971 110.424 215.115 109.28 216.107 107.808V95.256ZM218.387 79.08V114H217.139C216.723 114 216.483 113.792 216.419 113.376L216.179 109.608C215.123 111.048 213.891 112.192 212.483 113.04C211.075 113.888 209.491 114.312 207.731 114.312C204.787 114.312 202.499 113.296 200.867 111.264C199.235 109.232 198.419 106.184 198.419 102.12C198.419 100.376 198.643 98.752 199.091 97.248C199.555 95.728 200.227 94.416 201.107 93.312C201.987 92.192 203.067 91.312 204.347 90.672C205.643 90.032 207.131 89.712 208.811 89.712C210.427 89.712 211.827 90.008 213.011 90.6C214.195 91.192 215.227 92.072 216.107 93.24V79.08H218.387ZM269.809 90.12L261.841 114H260.137C259.865 114 259.681 113.832 259.585 113.496L253.057 94.104C252.977 93.864 252.905 93.624 252.841 93.384C252.777 93.144 252.721 92.904 252.673 92.664C252.593 93.144 252.473 93.624 252.313 94.104L245.689 113.496C245.593 113.832 245.401 114 245.113 114H243.481L235.513 90.12H237.241C237.465 90.12 237.649 90.184 237.793 90.312C237.937 90.424 238.033 90.552 238.081 90.696L244.105 109.536C244.201 109.904 244.289 110.264 244.369 110.616C244.449 110.952 244.513 111.288 244.561 111.624C244.657 111.288 244.753 110.952 244.849 110.616C244.945 110.264 245.057 109.904 245.185 109.536L251.569 90.528C251.681 90.176 251.905 90 252.241 90H253.177C253.529 90 253.761 90.176 253.873 90.528L260.208 109.536C260.321 109.904 260.425 110.256 260.521 110.592C260.617 110.928 260.705 111.264 260.785 111.6C260.849 111.264 260.913 110.928 260.977 110.592C261.057 110.256 261.153 109.904 261.265 109.536L267.337 90.696C267.401 90.52 267.505 90.384 267.649 90.288C267.793 90.176 267.961 90.12 268.153 90.12H269.809ZM277.496 90.12V114H275.216V90.12H277.496ZM278.48 81.888C278.48 82.176 278.416 82.448 278.288 82.704C278.176 82.944 278.024 83.16 277.832 83.352C277.64 83.544 277.416 83.696 277.16 83.808C276.904 83.92 276.632 83.976 276.344 83.976C276.056 83.976 275.784 83.92 275.528 83.808C275.272 83.696 275.048 83.544 274.856 83.352C274.664 83.16 274.512 82.944 274.4 82.704C274.288 82.448 274.232 82.176 274.232 81.888C274.232 81.6 274.288 81.328 274.4 81.072C274.512 80.8 274.664 80.568 274.856 80.376C275.048 80.184 275.272 80.032 275.528 79.92C275.784 79.808 276.056 79.752 276.344 79.752C276.632 79.752 276.904 79.808 277.16 79.92C277.416 80.032 277.64 80.184 277.832 80.376C278.024 80.568 278.176 80.8 278.288 81.072C278.416 81.328 278.48 81.6 278.48 81.888ZM292.167 114.384C290.551 114.384 289.287 113.936 288.375 113.04C287.479 112.144 287.031 110.76 287.031 108.888V92.568H283.599C283.423 92.568 283.279 92.52 283.167 92.424C283.055 92.328 282.999 92.192 282.999 92.016V91.128L287.079 90.84L287.655 82.296C287.687 82.152 287.751 82.024 287.847 81.912C287.943 81.8 288.079 81.744 288.255 81.744H289.335V90.864H296.871V92.568H289.335V108.768C289.335 109.424 289.415 109.992 289.575 110.472C289.751 110.936 289.983 111.32 290.271 111.624C290.575 111.928 290.927 112.152 291.327 112.296C291.727 112.44 292.159 112.512 292.623 112.512C293.199 112.512 293.695 112.432 294.111 112.272C294.527 112.096 294.887 111.912 295.191 111.72C295.495 111.512 295.743 111.328 295.935 111.168C296.127 110.992 296.279 110.904 296.391 110.904C296.519 110.904 296.647 110.984 296.775 111.144L297.399 112.152C296.791 112.824 296.015 113.368 295.071 113.784C294.143 114.184 293.175 114.384 292.167 114.384ZM304.396 94.152C305.5 92.808 306.756 91.736 308.164 90.936C309.588 90.136 311.18 89.736 312.94 89.736C314.252 89.736 315.404 89.944 316.396 90.36C317.404 90.776 318.236 91.376 318.892 92.16C319.548 92.944 320.044 93.888 320.38 94.992C320.716 96.096 320.884 97.344 320.884 98.736V114H318.58V98.736C318.58 96.496 318.068 94.744 317.044 93.48C316.02 92.2 314.46 91.56 312.364 91.56C310.812 91.56 309.356 91.96 307.996 92.76C306.652 93.544 305.452 94.64 304.396 96.048V114H302.092V79.08H304.396V94.152Z" fill="white"/>
<rect x="361" y="223" width="200" height="133.333" rx="10" fill="url(#paint0_linear_7_41)" fill-opacity="0.8"/>
<rect x="661" y="223" width="200" height="133.333" rx="10" fill="url(#paint1_linear_7_41)" fill-opacity="0.8"/>
<g clip-path="url(#clip0_7_41)">
<path d="M640.634 288.768L615.636 263.77C615.136 263.295 614.349 263.308 613.874 263.795C613.411 264.282 613.411 265.045 613.874 265.532L636.735 288.406H582.289C581.664 288.406 581.101 288.856 581.014 289.468C580.901 290.243 581.501 290.906 582.251 290.906H636.735L613.874 313.767C613.374 314.242 613.361 315.041 613.849 315.529C614.324 316.029 615.124 316.041 615.611 315.554C615.624 315.541 615.636 315.529 615.636 315.529L640.634 290.531C641.122 290.056 641.122 289.256 640.634 288.768Z" fill="white"/>
</g>
<path d="M475.488 114H473.016V80.04H475.488V114ZM486.261 94.296C487.365 92.92 488.637 91.816 490.077 90.984C491.533 90.152 493.149 89.736 494.925 89.736C496.237 89.736 497.389 89.944 498.381 90.36C499.389 90.776 500.221 91.376 500.877 92.16C501.533 92.944 502.029 93.888 502.365 94.992C502.701 96.096 502.869 97.344 502.869 98.736V114H500.565V98.736C500.565 96.496 500.053 94.744 499.029 93.48C498.005 92.2 496.445 91.56 494.349 91.56C492.797 91.56 491.341 91.96 489.981 92.76C488.637 93.544 487.437 94.64 486.381 96.048V114H484.077V90.12H485.349C485.749 90.12 485.981 90.32 486.045 90.72L486.261 94.296ZM523.595 93.072C523.467 93.296 523.283 93.408 523.043 93.408C522.867 93.408 522.643 93.312 522.371 93.12C522.099 92.912 521.731 92.688 521.267 92.448C520.819 92.192 520.259 91.968 519.587 91.776C518.915 91.568 518.099 91.464 517.139 91.464C516.275 91.464 515.483 91.592 514.763 91.848C514.059 92.088 513.451 92.416 512.939 92.832C512.443 93.248 512.059 93.736 511.787 94.296C511.515 94.84 511.379 95.416 511.379 96.024C511.379 96.776 511.571 97.4 511.955 97.896C512.339 98.392 512.835 98.816 513.443 99.168C514.067 99.52 514.779 99.824 515.579 100.08C516.379 100.336 517.187 100.592 518.003 100.848C518.835 101.104 519.651 101.392 520.451 101.712C521.251 102.016 521.955 102.4 522.563 102.864C523.187 103.328 523.691 103.896 524.075 104.568C524.459 105.24 524.651 106.056 524.651 107.016C524.651 108.056 524.467 109.024 524.099 109.92C523.731 110.816 523.187 111.592 522.467 112.248C521.763 112.904 520.891 113.424 519.851 113.808C518.811 114.192 517.619 114.384 516.275 114.384C514.595 114.384 513.147 114.12 511.931 113.592C510.715 113.048 509.627 112.344 508.667 111.48L509.195 110.664C509.275 110.536 509.363 110.44 509.459 110.376C509.571 110.312 509.715 110.28 509.891 110.28C510.099 110.28 510.347 110.408 510.635 110.664C510.939 110.92 511.339 111.2 511.835 111.504C512.331 111.792 512.939 112.064 513.659 112.32C514.395 112.576 515.299 112.704 516.371 112.704C517.379 112.704 518.267 112.568 519.035 112.296C519.803 112.008 520.443 111.624 520.955 111.144C521.467 110.664 521.851 110.104 522.107 109.464C522.379 108.808 522.515 108.12 522.515 107.4C522.515 106.6 522.323 105.936 521.939 105.408C521.555 104.88 521.051 104.432 520.427 104.064C519.803 103.696 519.091 103.384 518.291 103.128C517.507 102.872 516.699 102.616 515.867 102.36C515.035 102.104 514.219 101.824 513.419 101.52C512.635 101.216 511.931 100.832 511.307 100.368C510.683 99.904 510.179 99.344 509.795 98.688C509.411 98.016 509.219 97.184 509.219 96.192C509.219 95.344 509.403 94.528 509.771 93.744C510.139 92.96 510.659 92.272 511.331 91.68C512.019 91.088 512.851 90.616 513.827 90.264C514.803 89.912 515.899 89.736 517.115 89.736C518.571 89.736 519.859 89.944 520.979 90.36C522.115 90.776 523.147 91.416 524.075 92.28L523.595 93.072ZM537.386 114.384C535.77 114.384 534.506 113.936 533.594 113.04C532.698 112.144 532.25 110.76 532.25 108.888V92.568H528.818C528.642 92.568 528.498 92.52 528.386 92.424C528.274 92.328 528.218 92.192 528.218 92.016V91.128L532.298 90.84L532.874 82.296C532.906 82.152 532.97 82.024 533.066 81.912C533.162 81.8 533.298 81.744 533.474 81.744H534.554V90.864H542.09V92.568H534.554V108.768C534.554 109.424 534.634 109.992 534.794 110.472C534.97 110.936 535.202 111.32 535.49 111.624C535.794 111.928 536.146 112.152 536.546 112.296C536.946 112.44 537.378 112.512 537.842 112.512C538.418 112.512 538.914 112.432 539.33 112.272C539.746 112.096 540.106 111.912 540.41 111.72C540.714 111.512 540.962 111.328 541.154 111.168C541.346 110.992 541.498 110.904 541.61 110.904C541.738 110.904 541.866 110.984 541.994 111.144L542.618 112.152C542.01 112.824 541.234 113.368 540.29 113.784C539.362 114.184 538.394 114.384 537.386 114.384ZM560.679 102.456C558.407 102.536 556.447 102.72 554.799 103.008C553.167 103.28 551.815 103.656 550.743 104.136C549.687 104.616 548.903 105.192 548.391 105.864C547.879 106.52 547.623 107.272 547.623 108.12C547.623 108.92 547.751 109.616 548.007 110.208C548.279 110.784 548.631 111.264 549.063 111.648C549.511 112.016 550.023 112.288 550.599 112.464C551.175 112.64 551.775 112.728 552.399 112.728C553.327 112.728 554.175 112.632 554.943 112.44C555.727 112.232 556.447 111.952 557.103 111.6C557.775 111.232 558.399 110.8 558.975 110.304C559.551 109.808 560.119 109.272 560.679 108.696V102.456ZM546.639 93.504C547.887 92.256 549.199 91.312 550.575 90.672C551.951 90.032 553.511 89.712 555.255 89.712C556.535 89.712 557.655 89.92 558.615 90.336C559.575 90.736 560.367 91.32 560.991 92.088C561.631 92.84 562.111 93.76 562.431 94.848C562.751 95.92 562.911 97.12 562.911 98.448V114H561.999C561.519 114 561.223 113.776 561.111 113.328L560.775 110.256C560.119 110.896 559.463 111.472 558.807 111.984C558.167 112.496 557.495 112.928 556.791 113.28C556.087 113.632 555.327 113.904 554.511 114.096C553.695 114.288 552.799 114.384 551.823 114.384C551.007 114.384 550.215 114.264 549.447 114.024C548.679 113.784 547.991 113.416 547.383 112.92C546.791 112.424 546.311 111.792 545.943 111.024C545.591 110.24 545.415 109.304 545.415 108.216C545.415 107.208 545.703 106.272 546.279 105.408C546.855 104.544 547.759 103.792 548.991 103.152C550.223 102.512 551.799 102 553.719 101.616C555.655 101.232 557.975 101.008 560.679 100.944V98.448C560.679 96.24 560.199 94.544 559.239 93.36C558.295 92.16 556.887 91.56 555.015 91.56C553.863 91.56 552.879 91.72 552.063 92.04C551.263 92.36 550.583 92.712 550.023 93.096C549.463 93.48 549.007 93.832 548.655 94.152C548.303 94.472 548.007 94.632 547.767 94.632C547.591 94.632 547.447 94.592 547.335 94.512C547.223 94.432 547.127 94.328 547.047 94.2L546.639 93.504ZM573.081 79.08V114H570.777V79.08H573.081ZM583.675 79.08V114H581.371V79.08H583.675ZM611.308 114.384C609.692 114.384 608.428 113.936 607.516 113.04C606.62 112.144 606.172 110.76 606.172 108.888V92.568H602.74C602.564 92.568 602.42 92.52 602.308 92.424C602.196 92.328 602.14 92.192 602.14 92.016V91.128L606.22 90.84L606.796 82.296C606.828 82.152 606.892 82.024 606.988 81.912C607.084 81.8 607.22 81.744 607.396 81.744H608.476V90.864H616.012V92.568H608.476V108.768C608.476 109.424 608.556 109.992 608.716 110.472C608.892 110.936 609.124 111.32 609.412 111.624C609.716 111.928 610.068 112.152 610.468 112.296C610.868 112.44 611.3 112.512 611.764 112.512C612.34 112.512 612.836 112.432 613.252 112.272C613.668 112.096 614.028 111.912 614.332 111.72C614.636 111.512 614.884 111.328 615.076 111.168C615.268 110.992 615.42 110.904 615.532 110.904C615.66 110.904 615.788 110.984 615.916 111.144L616.54 112.152C615.932 112.824 615.156 113.368 614.212 113.784C613.284 114.184 612.316 114.384 611.308 114.384ZM623.537 94.152C624.641 92.808 625.897 91.736 627.305 90.936C628.729 90.136 630.321 89.736 632.081 89.736C633.393 89.736 634.545 89.944 635.537 90.36C636.545 90.776 637.377 91.376 638.033 92.16C638.689 92.944 639.185 93.888 639.521 94.992C639.857 96.096 640.025 97.344 640.025 98.736V114H637.721V98.736C637.721 96.496 637.209 94.744 636.185 93.48C635.161 92.2 633.601 91.56 631.505 91.56C629.953 91.56 628.497 91.96 627.137 92.76C625.793 93.544 624.593 94.64 623.537 96.048V114H621.233V79.08H623.537V94.152ZM664.376 99.648C664.376 98.368 664.192 97.224 663.824 96.216C663.472 95.192 662.968 94.328 662.312 93.624C661.656 92.92 660.872 92.384 659.96 92.016C659.064 91.632 658.072 91.44 656.984 91.44C655.752 91.44 654.648 91.632 653.672 92.016C652.696 92.4 651.848 92.952 651.128 93.672C650.424 94.392 649.856 95.256 649.424 96.264C648.992 97.272 648.704 98.4 648.56 99.648H664.376ZM648.44 101.112V101.568C648.44 103.36 648.648 104.936 649.064 106.296C649.48 107.656 650.072 108.8 650.84 109.728C651.608 110.64 652.536 111.328 653.624 111.792C654.712 112.256 655.928 112.488 657.272 112.488C658.472 112.488 659.512 112.36 660.392 112.104C661.272 111.832 662.008 111.536 662.6 111.216C663.208 110.88 663.688 110.584 664.04 110.328C664.392 110.056 664.648 109.92 664.808 109.92C665.016 109.92 665.176 110 665.288 110.16L665.912 110.928C665.528 111.408 665.016 111.856 664.376 112.272C663.752 112.688 663.048 113.048 662.264 113.352C661.496 113.64 660.664 113.872 659.768 114.048C658.888 114.224 658 114.312 657.104 114.312C655.472 114.312 653.984 114.032 652.64 113.472C651.296 112.896 650.144 112.064 649.184 110.976C648.224 109.888 647.48 108.56 646.952 106.992C646.44 105.408 646.184 103.6 646.184 101.568C646.184 99.856 646.424 98.28 646.904 96.84C647.4 95.384 648.104 94.136 649.016 93.096C649.944 92.04 651.072 91.216 652.4 90.624C653.744 90.032 655.264 89.736 656.96 89.736C658.304 89.736 659.552 89.968 660.704 90.432C661.856 90.896 662.856 91.576 663.704 92.472C664.552 93.352 665.216 94.44 665.696 95.736C666.192 97.032 666.44 98.52 666.44 100.2C666.44 100.552 666.392 100.792 666.296 100.92C666.2 101.048 666.04 101.112 665.816 101.112H648.44ZM672.655 114V90.12H673.927C674.327 90.12 674.559 90.32 674.623 90.72L674.839 94.176C675.767 92.848 676.831 91.776 678.031 90.96C679.231 90.144 680.583 89.736 682.087 89.736C683.831 89.736 685.223 90.24 686.263 91.248C687.319 92.256 688.031 93.656 688.399 95.448C688.687 94.472 689.087 93.624 689.599 92.904C690.127 92.184 690.727 91.592 691.399 91.128C692.071 90.648 692.799 90.296 693.583 90.072C694.383 89.848 695.199 89.736 696.031 89.736C697.215 89.736 698.279 89.936 699.223 90.336C700.167 90.72 700.967 91.296 701.623 92.064C702.279 92.832 702.783 93.776 703.135 94.896C703.487 96.016 703.663 97.296 703.663 98.736V114H701.383V98.736C701.383 96.4 700.879 94.624 699.871 93.408C698.863 92.176 697.423 91.56 695.551 91.56C694.719 91.56 693.919 91.712 693.151 92.016C692.399 92.32 691.727 92.776 691.135 93.384C690.559 93.976 690.095 94.72 689.743 95.616C689.407 96.512 689.239 97.552 689.239 98.736V114H686.935V98.736C686.935 96.416 686.471 94.64 685.543 93.408C684.631 92.176 683.287 91.56 681.511 91.56C680.215 91.56 679.015 91.944 677.911 92.712C676.807 93.48 675.823 94.544 674.959 95.904V114H672.655ZM728.032 99.648C728.032 98.368 727.848 97.224 727.48 96.216C727.128 95.192 726.624 94.328 725.968 93.624C725.312 92.92 724.528 92.384 723.616 92.016C722.72 91.632 721.728 91.44 720.64 91.44C719.408 91.44 718.304 91.632 717.328 92.016C716.352 92.4 715.504 92.952 714.784 93.672C714.08 94.392 713.512 95.256 713.08 96.264C712.648 97.272 712.36 98.4 712.216 99.648H728.032ZM712.096 101.112V101.568C712.096 103.36 712.304 104.936 712.72 106.296C713.136 107.656 713.728 108.8 714.496 109.728C715.264 110.64 716.192 111.328 717.28 111.792C718.368 112.256 719.584 112.488 720.928 112.488C722.128 112.488 723.168 112.36 724.048 112.104C724.928 111.832 725.664 111.536 726.256 111.216C726.864 110.88 727.344 110.584 727.696 110.328C728.048 110.056 728.304 109.92 728.464 109.92C728.672 109.92 728.832 110 728.944 110.16L729.568 110.928C729.184 111.408 728.672 111.856 728.032 112.272C727.408 112.688 726.704 113.048 725.92 113.352C725.152 113.64 724.32 113.872 723.424 114.048C722.544 114.224 721.656 114.312 720.76 114.312C719.128 114.312 717.64 114.032 716.296 113.472C714.952 112.896 713.8 112.064 712.84 110.976C711.88 109.888 711.136 108.56 710.608 106.992C710.096 105.408 709.84 103.6 709.84 101.568C709.84 99.856 710.08 98.28 710.56 96.84C711.056 95.384 711.76 94.136 712.672 93.096C713.6 92.04 714.728 91.216 716.056 90.624C717.4 90.032 718.92 89.736 720.616 89.736C721.96 89.736 723.208 89.968 724.36 90.432C725.512 90.896 726.512 91.576 727.36 92.472C728.208 93.352 728.872 94.44 729.352 95.736C729.848 97.032 730.096 98.52 730.096 100.2C730.096 100.552 730.048 100.792 729.952 100.92C729.856 101.048 729.696 101.112 729.472 101.112H712.096ZM749.439 93.072C749.311 93.296 749.127 93.408 748.887 93.408C748.711 93.408 748.487 93.312 748.215 93.12C747.943 92.912 747.575 92.688 747.111 92.448C746.663 92.192 746.103 91.968 745.431 91.776C744.759 91.568 743.943 91.464 742.983 91.464C742.119 91.464 741.327 91.592 740.607 91.848C739.903 92.088 739.295 92.416 738.783 92.832C738.287 93.248 737.903 93.736 737.631 94.296C737.359 94.84 737.223 95.416 737.223 96.024C737.223 96.776 737.415 97.4 737.799 97.896C738.183 98.392 738.679 98.816 739.287 99.168C739.911 99.52 740.623 99.824 741.423 100.08C742.223 100.336 743.031 100.592 743.847 100.848C744.679 101.104 745.495 101.392 746.295 101.712C747.095 102.016 747.799 102.4 748.407 102.864C749.031 103.328 749.535 103.896 749.919 104.568C750.303 105.24 750.495 106.056 750.495 107.016C750.495 108.056 750.311 109.024 749.943 109.92C749.575 110.816 749.031 111.592 748.311 112.248C747.607 112.904 746.735 113.424 745.695 113.808C744.655 114.192 743.463 114.384 742.119 114.384C740.439 114.384 738.991 114.12 737.775 113.592C736.559 113.048 735.471 112.344 734.511 111.48L735.039 110.664C735.119 110.536 735.207 110.44 735.303 110.376C735.415 110.312 735.559 110.28 735.735 110.28C735.943 110.28 736.191 110.408 736.479 110.664C736.783 110.92 737.183 111.2 737.679 111.504C738.175 111.792 738.783 112.064 739.503 112.32C740.239 112.576 741.143 112.704 742.215 112.704C743.223 112.704 744.111 112.568 744.879 112.296C745.647 112.008 746.287 111.624 746.799 111.144C747.311 110.664 747.695 110.104 747.951 109.464C748.223 108.808 748.359 108.12 748.359 107.4C748.359 106.6 748.167 105.936 747.783 105.408C747.399 104.88 746.895 104.432 746.271 104.064C745.647 103.696 744.935 103.384 744.135 103.128C743.351 102.872 742.543 102.616 741.711 102.36C740.879 102.104 740.063 101.824 739.263 101.52C738.479 101.216 737.775 100.832 737.151 100.368C736.527 99.904 736.023 99.344 735.639 98.688C735.255 98.016 735.063 97.184 735.063 96.192C735.063 95.344 735.247 94.528 735.615 93.744C735.983 92.96 736.503 92.272 737.175 91.68C737.863 91.088 738.695 90.616 739.671 90.264C740.647 89.912 741.743 89.736 742.959 89.736C744.415 89.736 745.703 89.944 746.823 90.36C747.959 90.776 748.991 91.416 749.919 92.28L749.439 93.072Z" fill="white"/>
<path d="M1071.2 335.309L1042.58 306.689C1044.85 301.492 1046.05 295.823 1046.05 290.12C1046.05 284.416 1044.85 278.747 1042.58 273.551L1071.2 244.928C1077.05 239.072 1077.05 229.545 1071.2 223.69C1068.36 220.854 1064.59 219.292 1060.58 219.292C1056.57 219.292 1052.8 220.854 1049.96 223.691L1021.34 252.312C1016.15 250.038 1010.48 248.846 1004.77 248.846C999.069 248.846 993.398 250.038 988.203 252.312L959.582 223.692C956.745 220.856 952.973 219.294 948.963 219.294C944.952 219.294 941.18 220.856 938.343 223.693C932.488 229.548 932.488 239.076 938.343 244.931L966.965 273.551C964.69 278.748 963.498 284.418 963.498 290.12C963.498 295.823 964.691 301.494 966.965 306.689L938.344 335.31C932.491 341.166 932.491 350.693 938.345 356.547C941.182 359.384 944.953 360.946 948.964 360.946C952.975 360.946 956.746 359.384 959.583 356.547L988.203 327.927C993.4 330.202 999.069 331.393 1004.77 331.393C1010.47 331.393 1016.14 330.202 1021.34 327.927L1049.96 356.546C1052.8 359.383 1056.57 360.946 1060.58 360.946C1064.59 360.946 1068.36 359.384 1071.2 356.548C1074.04 353.712 1075.6 349.941 1075.6 345.929C1075.6 341.918 1074.04 338.146 1071.2 335.309ZM1065.43 350.775C1064.13 352.07 1062.41 352.783 1060.58 352.783C1058.75 352.783 1057.03 352.07 1055.73 350.775L1025.06 320.106C1024.28 319.321 1023.23 318.911 1022.18 318.911C1021.52 318.911 1020.87 319.066 1020.26 319.386C1015.53 321.901 1010.17 323.23 1004.77 323.23C999.374 323.23 994.017 321.9 989.279 319.386C987.695 318.546 985.748 318.837 984.479 320.105L953.811 350.774C952.516 352.069 950.795 352.782 948.964 352.782C947.134 352.782 945.413 352.068 944.118 350.774C941.446 348.102 941.446 343.754 944.118 341.081L974.787 310.412C976.055 309.143 976.347 307.196 975.506 305.612C972.992 300.875 971.663 295.518 971.663 290.119C971.663 284.722 972.992 279.365 975.506 274.626C976.346 273.043 976.055 271.095 974.787 269.827L944.116 239.158C941.444 236.486 941.444 232.137 944.116 229.464C945.411 228.17 947.132 227.457 948.963 227.457C950.793 227.457 952.515 228.17 953.81 229.464L984.48 260.134C985.748 261.402 987.696 261.694 989.28 260.853C994.016 258.338 999.374 257.009 1004.77 257.009C1010.17 257.009 1015.53 258.338 1020.27 260.853C1021.85 261.694 1023.8 261.402 1025.07 260.134L1055.73 229.463C1057.03 228.168 1058.75 227.455 1060.58 227.455C1062.41 227.455 1064.13 228.168 1065.43 229.463C1068.1 232.135 1068.1 236.484 1065.43 239.157L1034.76 269.827C1033.49 271.095 1033.2 273.043 1034.04 274.627C1036.55 279.364 1037.88 284.721 1037.88 290.12C1037.88 295.518 1036.55 300.875 1034.04 305.613C1033.2 307.197 1033.49 309.144 1034.76 310.413L1065.43 341.082C1066.72 342.376 1067.44 344.098 1067.44 345.929C1067.44 347.759 1066.72 349.48 1065.43 350.775Z" fill="white"/>
<path d="M1004.77 282.361C1000.49 282.361 997.016 285.839 997.016 290.116C997.016 294.392 1000.49 297.871 1004.77 297.871C1009.05 297.871 1012.53 294.392 1012.53 290.116C1012.53 285.839 1009.05 282.361 1004.77 282.361Z" fill="white"/>
<path d="M1004.77 268.483C992.843 268.483 983.138 278.187 983.138 290.116C983.138 302.044 992.843 311.748 1004.77 311.748C1016.7 311.748 1026.4 302.044 1026.4 290.116C1026.4 278.187 1016.7 268.483 1004.77 268.483ZM1004.77 303.585C997.344 303.585 991.302 297.542 991.302 290.115C991.302 282.688 997.344 276.646 1004.77 276.646C1012.2 276.646 1018.24 282.688 1018.24 290.115C1018.24 297.543 1012.2 303.585 1004.77 303.585Z" fill="white"/>
<path d="M1084.76 197.49H924.224C917.472 197.49 911.979 202.983 911.979 209.735V234.081H905.254C900.703 234.081 897 237.784 897 242.335V278.284C897 282.835 900.703 286.538 905.254 286.538H911.979V293.782H905.254C900.703 293.782 897 297.485 897 302.036V337.986C897 342.537 900.703 346.239 905.254 346.239H911.979V370.265C911.979 377.017 917.472 382.51 924.224 382.51H1084.76C1091.51 382.51 1097 377.017 1097 370.265V209.735C1097 202.983 1091.51 197.49 1084.76 197.49ZM1088.84 370.266C1088.84 372.516 1087.01 374.347 1084.76 374.347H924.224C921.973 374.347 920.143 372.516 920.143 370.266V342.158C920.143 339.903 918.315 338.076 916.061 338.076H905.254C905.203 338.076 905.163 338.036 905.163 337.986V302.036C905.163 301.985 905.203 301.945 905.254 301.945H916.061C918.315 301.945 920.143 300.118 920.143 297.864V282.456C920.143 280.202 918.315 278.375 916.061 278.375H905.254C905.203 278.375 905.163 278.335 905.163 278.284V242.335C905.163 242.284 905.203 242.244 905.254 242.244H916.061C918.315 242.244 920.143 240.417 920.143 238.162V209.735C920.143 207.484 921.973 205.653 924.224 205.653H1084.76C1087.01 205.653 1088.84 207.484 1088.84 209.735V370.266V370.266Z" fill="white"/>
<path d="M1075.19 258.58C1072.94 258.58 1071.11 260.407 1071.11 262.661V264.489C1071.11 266.743 1072.94 268.57 1075.19 268.57C1077.45 268.57 1079.27 266.743 1079.27 264.489V262.661C1079.27 260.407 1077.45 258.58 1075.19 258.58Z" fill="white"/>
<path d="M1075.19 273.611C1072.94 273.611 1071.11 275.439 1071.11 277.693V317.338C1071.11 319.593 1072.94 321.42 1075.19 321.42C1077.45 321.42 1079.27 319.593 1079.27 317.338V277.693C1079.27 275.439 1077.45 273.611 1075.19 273.611Z" fill="white"/>
<path d="M865.008 112.032C867.984 112.032 870.232 111.392 871.752 110.112C873.288 108.816 874.056 107 874.056 104.664C874.056 103.592 873.848 102.632 873.432 101.784C873.032 100.92 872.448 100.192 871.68 99.6C870.912 98.992 869.968 98.528 868.848 98.208C867.728 97.888 866.456 97.728 865.032 97.728H856.488V112.032H865.008ZM856.488 81.984V95.928H863.832C865.4 95.928 866.736 95.728 867.84 95.328C868.96 94.928 869.872 94.4 870.576 93.744C871.296 93.088 871.824 92.344 872.16 91.512C872.496 90.68 872.664 89.824 872.664 88.944C872.664 86.656 871.936 84.928 870.48 83.76C869.04 82.576 866.808 81.984 863.784 81.984H856.488ZM863.784 80.04C865.72 80.04 867.4 80.232 868.824 80.616C870.248 81 871.424 81.568 872.352 82.32C873.28 83.056 873.968 83.96 874.416 85.032C874.864 86.104 875.088 87.32 875.088 88.68C875.088 89.576 874.928 90.44 874.608 91.272C874.304 92.104 873.856 92.872 873.264 93.576C872.688 94.28 871.968 94.896 871.104 95.424C870.256 95.936 869.28 96.328 868.176 96.6C870.848 96.984 872.896 97.872 874.32 99.264C875.76 100.64 876.48 102.456 876.48 104.712C876.48 106.152 876.224 107.448 875.712 108.6C875.2 109.752 874.456 110.728 873.48 111.528C872.504 112.328 871.304 112.944 869.88 113.376C868.456 113.792 866.84 114 865.032 114H854.016V80.04H863.784ZM896.21 102.456C893.938 102.536 891.978 102.72 890.33 103.008C888.698 103.28 887.346 103.656 886.274 104.136C885.218 104.616 884.434 105.192 883.922 105.864C883.41 106.52 883.154 107.272 883.154 108.12C883.154 108.92 883.282 109.616 883.538 110.208C883.81 110.784 884.162 111.264 884.594 111.648C885.042 112.016 885.554 112.288 886.13 112.464C886.706 112.64 887.306 112.728 887.93 112.728C888.858 112.728 889.706 112.632 890.474 112.44C891.258 112.232 891.978 111.952 892.634 111.6C893.306 111.232 893.93 110.8 894.506 110.304C895.082 109.808 895.65 109.272 896.21 108.696V102.456ZM882.17 93.504C883.418 92.256 884.73 91.312 886.106 90.672C887.482 90.032 889.042 89.712 890.786 89.712C892.066 89.712 893.186 89.92 894.146 90.336C895.106 90.736 895.898 91.32 896.522 92.088C897.162 92.84 897.642 93.76 897.962 94.848C898.282 95.92 898.442 97.12 898.442 98.448V114H897.53C897.05 114 896.754 113.776 896.642 113.328L896.306 110.256C895.65 110.896 894.994 111.472 894.338 111.984C893.698 112.496 893.026 112.928 892.322 113.28C891.618 113.632 890.858 113.904 890.042 114.096C889.226 114.288 888.33 114.384 887.354 114.384C886.538 114.384 885.746 114.264 884.978 114.024C884.21 113.784 883.522 113.416 882.914 112.92C882.322 112.424 881.842 111.792 881.474 111.024C881.122 110.24 880.946 109.304 880.946 108.216C880.946 107.208 881.234 106.272 881.81 105.408C882.386 104.544 883.29 103.792 884.522 103.152C885.754 102.512 887.33 102 889.25 101.616C891.186 101.232 893.506 101.008 896.21 100.944V98.448C896.21 96.24 895.73 94.544 894.77 93.36C893.826 92.16 892.418 91.56 890.546 91.56C889.394 91.56 888.41 91.72 887.594 92.04C886.794 92.36 886.114 92.712 885.554 93.096C884.994 93.48 884.538 93.832 884.186 94.152C883.834 94.472 883.538 94.632 883.298 94.632C883.122 94.632 882.978 94.592 882.866 94.512C882.754 94.432 882.658 94.328 882.578 94.2L882.17 93.504ZM922.148 93.312C922.068 93.392 921.988 93.464 921.908 93.528C921.844 93.576 921.748 93.6 921.62 93.6C921.46 93.6 921.244 93.496 920.972 93.288C920.7 93.064 920.332 92.824 919.868 92.568C919.404 92.312 918.82 92.08 918.116 91.872C917.428 91.648 916.588 91.536 915.596 91.536C914.22 91.536 912.996 91.784 911.924 92.28C910.868 92.76 909.972 93.456 909.236 94.368C908.5 95.28 907.94 96.384 907.556 97.68C907.188 98.976 907.004 100.432 907.004 102.048C907.004 103.728 907.196 105.216 907.58 106.512C907.98 107.808 908.54 108.904 909.26 109.8C909.98 110.68 910.852 111.352 911.876 111.816C912.9 112.28 914.036 112.512 915.284 112.512C916.436 112.512 917.396 112.376 918.164 112.104C918.948 111.832 919.588 111.536 920.084 111.216C920.596 110.896 920.996 110.6 921.284 110.328C921.572 110.056 921.812 109.92 922.004 109.92C922.196 109.92 922.356 110 922.484 110.16L923.084 110.928C922.716 111.408 922.252 111.856 921.692 112.272C921.132 112.688 920.5 113.048 919.796 113.352C919.092 113.656 918.324 113.888 917.492 114.048C916.676 114.224 915.82 114.312 914.924 114.312C913.404 114.312 912.012 114.04 910.748 113.496C909.5 112.936 908.42 112.136 907.508 111.096C906.612 110.04 905.908 108.752 905.396 107.232C904.9 105.712 904.652 103.984 904.652 102.048C904.652 100.224 904.892 98.56 905.372 97.056C905.852 95.552 906.556 94.256 907.484 93.168C908.412 92.08 909.54 91.24 910.868 90.648C912.212 90.04 913.748 89.736 915.476 89.736C917.028 89.736 918.404 89.984 919.604 90.48C920.804 90.976 921.852 91.648 922.748 92.496L922.148 93.312ZM931.037 79.08V100.368H932.141C932.365 100.368 932.573 100.336 932.765 100.272C932.973 100.208 933.197 100.056 933.437 99.816L943.013 90.72C943.173 90.528 943.349 90.384 943.541 90.288C943.733 90.176 943.973 90.12 944.261 90.12H946.277L935.741 100.128C935.453 100.464 935.141 100.728 934.805 100.92C935.061 101.048 935.277 101.2 935.453 101.376C935.645 101.536 935.829 101.728 936.005 101.952L947.069 114H945.077C944.853 114 944.645 113.968 944.453 113.904C944.277 113.824 944.109 113.672 943.949 113.448L933.917 102.696C933.789 102.552 933.661 102.432 933.533 102.336C933.421 102.24 933.301 102.168 933.173 102.12C933.045 102.056 932.893 102.016 932.717 102C932.557 101.968 932.357 101.952 932.117 101.952H931.037V114H928.733V79.08H931.037ZM970.089 90.12V114H968.817C968.417 114 968.185 113.792 968.121 113.376L967.905 109.824C966.801 111.2 965.521 112.304 964.065 113.136C962.625 113.968 961.017 114.384 959.241 114.384C957.913 114.384 956.753 114.176 955.761 113.76C954.769 113.344 953.945 112.744 953.289 111.96C952.633 111.176 952.137 110.232 951.801 109.128C951.465 108.024 951.297 106.776 951.297 105.384V90.12H953.601V105.384C953.601 107.624 954.113 109.384 955.137 110.664C956.161 111.928 957.721 112.56 959.817 112.56C961.369 112.56 962.817 112.168 964.161 111.384C965.521 110.584 966.729 109.48 967.785 108.072V90.12H970.089ZM980.256 108.792C980.72 109.48 981.2 110.064 981.696 110.544C982.208 111.008 982.744 111.392 983.304 111.696C983.864 111.984 984.456 112.192 985.08 112.32C985.72 112.448 986.392 112.512 987.096 112.512C988.504 112.512 989.736 112.256 990.792 111.744C991.848 111.232 992.728 110.512 993.432 109.584C994.152 108.64 994.688 107.52 995.04 106.224C995.408 104.912 995.592 103.472 995.592 101.904C995.592 98.352 994.936 95.744 993.624 94.08C992.312 92.4 990.432 91.56 987.984 91.56C986.4 91.56 984.968 91.968 983.688 92.784C982.408 93.6 981.264 94.736 980.256 96.192V108.792ZM980.16 94.416C981.216 92.976 982.448 91.832 983.856 90.984C985.28 90.136 986.872 89.712 988.632 89.712C991.56 89.712 993.84 90.728 995.472 92.76C997.12 94.792 997.944 97.84 997.944 101.904C997.944 103.648 997.712 105.28 997.248 106.8C996.8 108.304 996.128 109.616 995.232 110.736C994.352 111.84 993.264 112.712 991.968 113.352C990.688 113.992 989.208 114.312 987.528 114.312C985.912 114.312 984.512 114.016 983.328 113.424C982.144 112.832 981.12 111.96 980.256 110.808V122.448H977.952V90.12H979.224C979.624 90.12 979.856 90.32 979.92 90.72L980.16 94.416ZM1033.52 93.312C1033.44 93.392 1033.36 93.464 1033.28 93.528C1033.22 93.576 1033.12 93.6 1033 93.6C1032.84 93.6 1032.62 93.496 1032.35 93.288C1032.08 93.064 1031.71 92.824 1031.24 92.568C1030.78 92.312 1030.2 92.08 1029.49 91.872C1028.8 91.648 1027.96 91.536 1026.97 91.536C1025.6 91.536 1024.37 91.784 1023.3 92.28C1022.24 92.76 1021.35 93.456 1020.61 94.368C1019.88 95.28 1019.32 96.384 1018.93 97.68C1018.56 98.976 1018.38 100.432 1018.38 102.048C1018.38 103.728 1018.57 105.216 1018.96 106.512C1019.36 107.808 1019.92 108.904 1020.64 109.8C1021.36 110.68 1022.23 111.352 1023.25 111.816C1024.28 112.28 1025.41 112.512 1026.66 112.512C1027.81 112.512 1028.77 112.376 1029.54 112.104C1030.32 111.832 1030.96 111.536 1031.46 111.216C1031.97 110.896 1032.37 110.6 1032.66 110.328C1032.95 110.056 1033.19 109.92 1033.38 109.92C1033.57 109.92 1033.73 110 1033.86 110.16L1034.46 110.928C1034.09 111.408 1033.63 111.856 1033.07 112.272C1032.51 112.688 1031.88 113.048 1031.17 113.352C1030.47 113.656 1029.7 113.888 1028.87 114.048C1028.05 114.224 1027.2 114.312 1026.3 114.312C1024.78 114.312 1023.39 114.04 1022.12 113.496C1020.88 112.936 1019.8 112.136 1018.88 111.096C1017.99 110.04 1017.28 108.752 1016.77 107.232C1016.28 105.712 1016.03 103.984 1016.03 102.048C1016.03 100.224 1016.27 98.56 1016.75 97.056C1017.23 95.552 1017.93 94.256 1018.86 93.168C1019.79 92.08 1020.92 91.24 1022.24 90.648C1023.59 90.04 1025.12 89.736 1026.85 89.736C1028.4 89.736 1029.78 89.984 1030.98 90.48C1032.18 90.976 1033.23 91.648 1034.12 92.496L1033.52 93.312ZM1049.1 89.736C1050.81 89.736 1052.34 90.032 1053.68 90.624C1055.04 91.2 1056.18 92.024 1057.11 93.096C1058.04 94.168 1058.74 95.464 1059.22 96.984C1059.72 98.488 1059.97 100.176 1059.97 102.048C1059.97 103.92 1059.72 105.608 1059.22 107.112C1058.74 108.616 1058.04 109.904 1057.11 110.976C1056.18 112.048 1055.04 112.872 1053.68 113.448C1052.34 114.024 1050.81 114.312 1049.1 114.312C1047.38 114.312 1045.85 114.024 1044.49 113.448C1043.14 112.872 1042 112.048 1041.06 110.976C1040.13 109.904 1039.42 108.616 1038.92 107.112C1038.44 105.608 1038.2 103.92 1038.2 102.048C1038.2 100.176 1038.44 98.488 1038.92 96.984C1039.42 95.464 1040.13 94.168 1041.06 93.096C1042 92.024 1043.14 91.2 1044.49 90.624C1045.85 90.032 1047.38 89.736 1049.1 89.736ZM1049.1 112.512C1050.52 112.512 1051.76 112.272 1052.82 111.792C1053.89 111.296 1054.78 110.592 1055.48 109.68C1056.2 108.768 1056.74 107.672 1057.09 106.392C1057.44 105.096 1057.62 103.648 1057.62 102.048C1057.62 100.464 1057.44 99.024 1057.09 97.728C1056.74 96.432 1056.2 95.328 1055.48 94.416C1054.78 93.488 1053.89 92.776 1052.82 92.28C1051.76 91.784 1050.52 91.536 1049.1 91.536C1047.67 91.536 1046.42 91.784 1045.35 92.28C1044.3 92.776 1043.41 93.488 1042.69 94.416C1041.98 95.328 1041.45 96.432 1041.08 97.728C1040.73 99.024 1040.55 100.464 1040.55 102.048C1040.55 103.648 1040.73 105.096 1041.08 106.392C1041.45 107.672 1041.98 108.768 1042.69 109.68C1043.41 110.592 1044.3 111.296 1045.35 111.792C1046.42 112.272 1047.67 112.512 1049.1 112.512ZM1068.59 94.296C1069.69 92.92 1070.96 91.816 1072.4 90.984C1073.86 90.152 1075.48 89.736 1077.25 89.736C1078.56 89.736 1079.72 89.944 1080.71 90.36C1081.72 90.776 1082.55 91.376 1083.2 92.16C1083.86 92.944 1084.36 93.888 1084.69 94.992C1085.03 96.096 1085.2 97.344 1085.2 98.736V114H1082.89V98.736C1082.89 96.496 1082.38 94.744 1081.36 93.48C1080.33 92.2 1078.77 91.56 1076.68 91.56C1075.12 91.56 1073.67 91.96 1072.31 92.76C1070.96 93.544 1069.76 94.64 1068.71 96.048V114H1066.4V90.12H1067.68C1068.08 90.12 1068.31 90.32 1068.37 90.72L1068.59 94.296ZM1093.93 114V92.616L1090.57 92.4C1090.12 92.352 1089.9 92.152 1089.9 91.8V90.864H1093.93V88.824C1093.93 87.352 1094.15 86.032 1094.58 84.864C1095.01 83.68 1095.64 82.68 1096.48 81.864C1097.31 81.032 1098.32 80.4 1099.5 79.968C1100.68 79.52 1102.04 79.296 1103.56 79.296C1104.07 79.296 1104.6 79.344 1105.16 79.44C1105.74 79.52 1106.23 79.64 1106.63 79.8L1106.53 80.952C1106.5 81.08 1106.44 81.152 1106.34 81.168C1106.24 81.184 1106.1 81.184 1105.91 81.168C1105.72 81.152 1105.47 81.128 1105.16 81.096C1104.88 81.048 1104.52 81.024 1104.11 81.024C1101.58 81.024 1099.62 81.672 1098.23 82.968C1096.85 84.264 1096.16 86.24 1096.16 88.896V90.864H1110.16V114H1107.88V92.568H1096.24V114H1093.93ZM1126.1 103.44C1127.12 103.44 1128.03 103.296 1128.83 103.008C1129.63 102.704 1130.3 102.288 1130.85 101.76C1131.39 101.232 1131.81 100.6 1132.1 99.864C1132.38 99.128 1132.53 98.312 1132.53 97.416C1132.53 96.52 1132.38 95.704 1132.07 94.968C1131.78 94.216 1131.36 93.576 1130.8 93.048C1130.26 92.52 1129.58 92.112 1128.78 91.824C1128 91.536 1127.1 91.392 1126.1 91.392C1125.09 91.392 1124.18 91.536 1123.38 91.824C1122.6 92.112 1121.93 92.52 1121.37 93.048C1120.82 93.576 1120.41 94.216 1120.12 94.968C1119.83 95.704 1119.69 96.52 1119.69 97.416C1119.69 98.312 1119.83 99.128 1120.12 99.864C1120.41 100.6 1120.82 101.232 1121.37 101.76C1121.93 102.288 1122.6 102.704 1123.38 103.008C1124.18 103.296 1125.09 103.44 1126.1 103.44ZM1135.02 115.608C1135.02 114.856 1134.82 114.256 1134.42 113.808C1134.04 113.344 1133.52 112.984 1132.86 112.728C1132.21 112.472 1131.45 112.296 1130.58 112.2C1129.74 112.088 1128.84 112.008 1127.9 111.96C1126.97 111.912 1126.03 111.864 1125.09 111.816C1124.14 111.768 1123.26 111.672 1122.42 111.528C1121.82 111.768 1121.26 112.048 1120.74 112.368C1120.23 112.672 1119.79 113.024 1119.42 113.424C1119.06 113.824 1118.77 114.256 1118.56 114.72C1118.35 115.2 1118.25 115.712 1118.25 116.256C1118.25 116.96 1118.42 117.608 1118.78 118.2C1119.14 118.808 1119.67 119.328 1120.36 119.76C1121.06 120.208 1121.92 120.56 1122.93 120.816C1123.94 121.072 1125.1 121.2 1126.41 121.2C1127.62 121.2 1128.75 121.064 1129.79 120.792C1130.85 120.52 1131.76 120.136 1132.53 119.64C1133.31 119.144 1133.92 118.552 1134.35 117.864C1134.8 117.176 1135.02 116.424 1135.02 115.608ZM1137.52 91.176V91.968C1137.52 92.32 1137.3 92.536 1136.85 92.616L1133.2 92.88C1133.65 93.488 1133.99 94.168 1134.23 94.92C1134.47 95.672 1134.59 96.488 1134.59 97.368C1134.59 98.52 1134.38 99.568 1133.97 100.512C1133.57 101.44 1132.99 102.24 1132.24 102.912C1131.5 103.568 1130.61 104.08 1129.55 104.448C1128.51 104.816 1127.36 105 1126.1 105C1124.74 105 1123.5 104.792 1122.38 104.376C1121.7 104.76 1121.17 105.216 1120.77 105.744C1120.38 106.256 1120.19 106.768 1120.19 107.28C1120.19 107.968 1120.43 108.496 1120.91 108.864C1121.41 109.232 1122.05 109.504 1122.83 109.68C1123.63 109.84 1124.54 109.944 1125.54 109.992C1126.57 110.04 1127.61 110.096 1128.66 110.16C1129.72 110.208 1130.75 110.304 1131.76 110.448C1132.78 110.592 1133.69 110.848 1134.47 111.216C1135.27 111.568 1135.91 112.072 1136.39 112.728C1136.89 113.368 1137.14 114.224 1137.14 115.296C1137.14 116.288 1136.89 117.24 1136.39 118.152C1135.9 119.064 1135.18 119.872 1134.23 120.576C1133.3 121.28 1132.18 121.84 1130.85 122.256C1129.52 122.688 1128.03 122.904 1126.38 122.904C1124.7 122.904 1123.23 122.728 1121.97 122.376C1120.7 122.04 1119.64 121.576 1118.78 120.984C1117.93 120.408 1117.29 119.736 1116.86 118.968C1116.42 118.2 1116.21 117.384 1116.21 116.52C1116.21 115.256 1116.62 114.176 1117.46 113.28C1118.29 112.368 1119.42 111.656 1120.86 111.144C1120.06 110.872 1119.42 110.48 1118.92 109.968C1118.44 109.44 1118.2 108.728 1118.2 107.832C1118.2 107.496 1118.26 107.144 1118.39 106.776C1118.52 106.408 1118.71 106.048 1118.97 105.696C1119.22 105.328 1119.54 104.984 1119.9 104.664C1120.27 104.344 1120.69 104.056 1121.15 103.8C1120.02 103.144 1119.13 102.272 1118.49 101.184C1117.86 100.096 1117.55 98.824 1117.55 97.368C1117.55 96.216 1117.75 95.176 1118.15 94.248C1118.57 93.304 1119.15 92.496 1119.9 91.824C1120.66 91.152 1121.55 90.632 1122.59 90.264C1123.65 89.896 1124.82 89.712 1126.1 89.712C1127.15 89.712 1128.12 89.84 1129 90.096C1129.9 90.352 1130.7 90.712 1131.4 91.176H1137.52ZM1155.94 93.072C1155.81 93.296 1155.63 93.408 1155.39 93.408C1155.21 93.408 1154.99 93.312 1154.72 93.12C1154.44 92.912 1154.08 92.688 1153.61 92.448C1153.16 92.192 1152.6 91.968 1151.93 91.776C1151.26 91.568 1150.44 91.464 1149.48 91.464C1148.62 91.464 1147.83 91.592 1147.11 91.848C1146.4 92.088 1145.8 92.416 1145.28 92.832C1144.79 93.248 1144.4 93.736 1144.13 94.296C1143.86 94.84 1143.72 95.416 1143.72 96.024C1143.72 96.776 1143.92 97.4 1144.3 97.896C1144.68 98.392 1145.18 98.816 1145.79 99.168C1146.41 99.52 1147.12 99.824 1147.92 100.08C1148.72 100.336 1149.53 100.592 1150.35 100.848C1151.18 101.104 1152 101.392 1152.8 101.712C1153.6 102.016 1154.3 102.4 1154.91 102.864C1155.53 103.328 1156.04 103.896 1156.42 104.568C1156.8 105.24 1157 106.056 1157 107.016C1157 108.056 1156.81 109.024 1156.44 109.92C1156.08 110.816 1155.53 111.592 1154.81 112.248C1154.11 112.904 1153.24 113.424 1152.2 113.808C1151.16 114.192 1149.96 114.384 1148.62 114.384C1146.94 114.384 1145.49 114.12 1144.28 113.592C1143.06 113.048 1141.97 112.344 1141.01 111.48L1141.54 110.664C1141.62 110.536 1141.71 110.44 1141.8 110.376C1141.92 110.312 1142.06 110.28 1142.24 110.28C1142.44 110.28 1142.69 110.408 1142.98 110.664C1143.28 110.92 1143.68 111.2 1144.18 111.504C1144.68 111.792 1145.28 112.064 1146 112.32C1146.74 112.576 1147.64 112.704 1148.72 112.704C1149.72 112.704 1150.61 112.568 1151.38 112.296C1152.15 112.008 1152.79 111.624 1153.3 111.144C1153.81 110.664 1154.2 110.104 1154.45 109.464C1154.72 108.808 1154.86 108.12 1154.86 107.4C1154.86 106.6 1154.67 105.936 1154.28 105.408C1153.9 104.88 1153.4 104.432 1152.77 104.064C1152.15 103.696 1151.44 103.384 1150.64 103.128C1149.85 102.872 1149.04 102.616 1148.21 102.36C1147.38 102.104 1146.56 101.824 1145.76 101.52C1144.98 101.216 1144.28 100.832 1143.65 100.368C1143.03 99.904 1142.52 99.344 1142.14 98.688C1141.76 98.016 1141.56 97.184 1141.56 96.192C1141.56 95.344 1141.75 94.528 1142.12 93.744C1142.48 92.96 1143 92.272 1143.68 91.68C1144.36 91.088 1145.2 90.616 1146.17 90.264C1147.15 89.912 1148.24 89.736 1149.46 89.736C1150.92 89.736 1152.2 89.944 1153.32 90.36C1154.46 90.776 1155.49 91.416 1156.42 92.28L1155.94 93.072Z" fill="white"/>
<defs>
<linearGradient id="paint0_linear_7_41" x1="361" y1="223" x2="561" y2="356.333" gradientUnits="userSpaceOnUse">
<stop stop-color="#EFEFEF"/>
<stop offset="1" stop-color="#DDDDDD"/>
</linearGradient>
<linearGradient id="paint1_linear_7_41" x1="661" y1="223" x2="861" y2="356.333" gradientUnits="userSpaceOnUse">
<stop stop-color="#1E1E1E"/>
<stop offset="0.0001" stop-color="#1E1E1E"/>
<stop offset="0.98179" stop-color="#2E2E2E"/>
</linearGradient>
<clipPath id="clip0_7_41">
<rect width="60" height="60" fill="white" transform="translate(581 259.667)"/>
</clipPath>
</defs>
</svg>
