<svg width="256" height="256" viewBox="0 0 256 256" fill="none" xmlns="http://www.w3.org/2000/svg">
<path d="M159.604 134.782C159.604 145.498 155.4 155.776 147.917 163.353C140.434 170.931 130.285 175.188 119.703 175.188C109.121 175.188 98.9717 170.931 91.4888 163.353C84.0059 155.776 79.8021 145.498 79.8021 134.782C79.8021 124.065 84.0059 113.788 91.4888 106.21C98.9717 98.6327 109.121 94.3756 119.703 94.3756C130.285 94.3756 140.434 98.6327 147.917 106.21C155.4 113.788 159.604 124.065 159.604 134.782V134.782Z" fill="white"/>
<path d="M159.604 110.033C159.604 112.752 159.212 115.445 158.451 117.958C157.689 120.47 156.573 122.753 155.166 124.676C153.759 126.599 152.089 128.124 150.25 129.165C148.412 130.205 146.442 130.741 144.452 130.741C142.462 130.741 140.492 130.205 138.653 129.165C136.815 128.124 135.145 126.599 133.738 124.676C132.33 122.753 131.214 120.47 130.453 117.958C129.691 115.445 129.299 112.752 129.299 110.033C129.299 104.541 130.896 99.2736 133.738 95.3901C136.579 91.5066 140.433 89.3248 144.452 89.3248C148.47 89.3248 152.324 91.5066 155.166 95.3901C158.008 99.2736 159.604 104.541 159.604 110.033V110.033Z" fill="white"/>
<path d="M74.342 127.262C61.0751 126.741 45.6698 118.488 45 90.4883C48.3967 64.7351 71.9071 57.2058 77.4836 57.457C82.9438 56.6077 84.6138 57.0888 89.7191 57.0253C95.4493 56.6617 94.3336 57.4322 99.0266 56.2469C103.719 54.5128 104.873 53.0066 109.414 51.4005C108.048 55.582 107.5 61.041 102.25 63.5969C97.5766 66.0965 93.7185 66.4373 88.3982 67.0694C79.1543 68.9941 75.8896 71.9428 72.296 74.5678C67.0784 78.393 66.5259 83.1422 64.755 87.0978C62.9053 92.0489 63.8239 94.1006 64.174 96.7477C64.9429 100.128 66.7464 103.176 72.8894 104.833C79.0722 105.403 81.5483 101.813 84.8006 99.0949C89.7631 94.2993 93.0954 90.4792 97.0022 86.3153C103.781 79.9306 110.705 78.029 117.338 78.4911C124.255 79.3047 129.282 82.6638 133.898 86.5762C137.518 82.7605 141.52 79.7175 146.68 79.0127C151.232 78.6288 155.783 79.664 160.334 81.36C168.549 86.5725 172.539 93.9516 178.346 100.399C181.462 103.971 184.333 104.905 187.062 104.311C191.181 102.837 194.067 100.034 194.325 94.4004C194.873 87.9795 193.195 82.391 189.095 77.7087C185.391 73.612 181.217 69.5163 176.783 67.7146C174.168 67.0626 170.19 66.0405 165.619 65.6446C159.688 65.8575 153.949 64.7597 152.052 63.1751C149.905 62.6198 145.253 53.2307 144.226 51C146.357 52.7827 148.957 54.1334 153.201 56.3718C157.698 57.6857 160.785 57.418 166.244 56.7383C171.823 55.4792 177.676 56.2965 182.414 56.9492C189.071 58.1473 195.46 62.0464 199.801 65.6892C208.497 72.1349 211.191 82.6529 211.756 92.5747C211.611 98.7913 211.28 104.841 208.851 109.006C204.906 115.456 203.192 117.465 199.845 120.742C195.837 123.884 191.165 125.683 185.609 125.697" fill="white"/>
<path d="M74.342 127.262C61.0751 126.741 45.6698 118.488 45 90.4883C48.3967 64.7351 71.9071 57.2058 77.4836 57.457C82.9438 56.6077 84.6138 57.0888 89.7191 57.0253C95.4493 56.6617 94.3336 57.4322 99.0266 56.2469C103.719 54.5128 104.873 53.0066 109.414 51.4005C108.048 55.582 107.5 61.041 102.25 63.5969C97.5766 66.0965 93.7185 66.4373 88.3982 67.0694C79.1543 68.9941 75.8896 71.9428 72.296 74.5678C67.0784 78.393 66.5259 83.1422 64.755 87.0978C62.9053 92.0489 63.8239 94.1006 64.174 96.7477C64.9429 100.128 66.7464 103.176 72.8894 104.833C79.0722 105.403 81.5483 101.813 84.8006 99.0949C89.7631 94.2993 93.0954 90.4792 97.0022 86.3153C103.781 79.9306 110.705 78.029 117.338 78.4911C124.255 79.3047 129.282 82.6638 133.898 86.5762C137.518 82.7605 141.52 79.7175 146.68 79.0127C151.232 78.6288 155.783 79.664 160.334 81.36C168.549 86.5725 172.539 93.9516 178.346 100.399C181.462 103.971 184.333 104.905 187.062 104.311C191.181 102.837 194.067 100.034 194.325 94.4004C194.873 87.9795 193.195 82.391 189.095 77.7087C185.391 73.612 181.217 69.5163 176.783 67.7146C174.168 67.0626 170.19 66.0405 165.619 65.6446C159.688 65.8575 153.949 64.7597 152.052 63.1751C149.905 62.6198 145.253 53.2307 144.226 51C146.357 52.7827 148.957 54.1334 153.201 56.3718C157.698 57.6857 160.785 57.418 166.244 56.7383C171.823 55.4792 177.676 56.2965 182.414 56.9492C189.071 58.1473 195.46 62.0464 199.801 65.6892C208.497 72.1349 211.191 82.6529 211.756 92.5747C211.611 98.7913 211.28 104.841 208.851 109.006C204.906 115.456 203.192 117.465 199.845 120.742C195.837 123.884 191.165 125.683 185.609 125.697" stroke="black" stroke-width="6"/>
<path d="M132.155 96.7477C126.244 95.9599 122.31 100.09 111.237 98.8341C105.863 98.4212 104.749 101.051 98.7453 101.442C92.1654 102.268 85.7023 108.314 82.767 111.353C79.2424 115.46 76.5968 121.03 75.2136 126.48C74.8752 129.306 74.4614 135.194 71.1463 136.912C69.4863 138.194 70.313 142.346 67.6602 143.171C65.827 143.883 65.0435 145.419 64.755 147.344C64.502 148.39 64.8219 149.076 66.4981 148.909C67.8572 148.172 69.1291 147.395 70.8558 146.823C72.9701 146.055 73.471 148.323 76.6661 145.519C77.9154 144.438 79.595 143.473 82.767 142.911C88.1037 142.518 91.8252 140.952 95.8401 138.216C99.6662 135.304 101.174 132.16 103.394 129.088C105.389 126.344 105.981 123.389 106.88 120.481" fill="white"/>
<path d="M132.155 96.7477C126.244 95.9599 122.31 100.09 111.237 98.8341C105.863 98.4212 104.749 101.051 98.7453 101.442C92.1654 102.268 85.7023 108.314 82.767 111.353C79.2424 115.46 76.5968 121.03 75.2136 126.48C74.8752 129.306 74.4614 135.194 71.1463 136.912C69.4863 138.194 70.313 142.346 67.6602 143.171C65.827 143.883 65.0435 145.419 64.755 147.344C64.502 148.39 64.8219 149.076 66.4981 148.909C67.8572 148.172 69.1291 147.395 70.8558 146.823C72.9701 146.055 73.471 148.323 76.6661 145.519C77.9154 144.438 79.595 143.473 82.767 142.911C88.1037 142.518 91.8252 140.952 95.8401 138.216C99.6662 135.304 101.174 132.16 103.394 129.088C105.389 126.344 105.981 123.389 106.88 120.481" stroke="black" stroke-width="6"/>
<path d="M149.096 97.6054C154.717 97.5857 159.977 98.6703 164.913 100.741C168.737 102.562 170.607 104.518 172.72 106.458C174.955 108.744 176.705 111.018 177.65 114.941C178.238 117.24 179.472 118.96 180.731 120.658C181.952 121.989 183.277 123.508 184.634 125.084C185.538 126.129 186.059 127.174 186.278 128.219C186.615 130.551 187.334 130.662 187.921 131.538C189.251 131.919 189.867 131.765 190.386 131.538C191.906 131.373 191.56 132.284 191.208 133.198C190.538 134.282 189.83 135.353 186.483 135.596C184.299 135.743 182.025 135.57 179.704 135.227C178.435 135.029 178.032 134.351 176.828 133.936C176.068 133.629 175.123 133.321 173.952 133.014C172.239 132.491 171.664 133.147 169.433 131.723C167.318 130.048 164.978 128.518 162.321 127.818" fill="white"/>
<path d="M149.096 97.6054C154.717 97.5857 159.977 98.6703 164.913 100.741C168.737 102.562 170.607 104.518 172.72 106.458C174.955 108.744 176.705 111.018 177.65 114.941C178.238 117.24 179.472 118.96 180.731 120.658C181.952 121.989 183.277 123.508 184.634 125.084C185.538 126.129 186.059 127.174 186.278 128.219C186.615 130.551 187.334 130.662 187.921 131.538C189.251 131.919 189.867 131.765 190.386 131.538C191.906 131.373 191.56 132.284 191.208 133.198C190.538 134.282 189.83 135.353 186.483 135.596C184.299 135.743 182.025 135.57 179.704 135.227C178.435 135.029 178.032 134.351 176.828 133.936C176.068 133.629 175.123 133.321 173.952 133.014C172.239 132.491 171.664 133.147 169.433 131.723C167.318 130.048 164.978 128.518 162.321 127.818" stroke="black" stroke-width="6"/>
<path d="M101.36 114.483C102.71 113.739 104.109 113.103 104.991 111.353C105.392 110.862 105.523 110.809 106.626 110.114C107.533 109.629 106.863 108.934 107.606 107.832C108.528 106.444 109.646 105.319 111.528 105.224C112.32 105.292 112.966 105.198 113.371 104.832C114.361 104.042 116.511 104.112 117.302 103.529C116.72 104.912 116.228 106.052 115.74 107.18C114.655 109.114 113.499 109.884 112.254 110.701" fill="white"/>
<path d="M101.36 114.483C102.71 113.739 104.109 113.103 104.991 111.353C105.392 110.862 105.523 110.809 106.626 110.114C107.533 109.629 106.863 108.934 107.606 107.832C108.528 106.444 109.646 105.319 111.528 105.224C112.32 105.292 112.966 105.198 113.371 104.832C114.361 104.042 116.511 104.112 117.302 103.529C116.72 104.912 116.228 106.052 115.74 107.18C114.655 109.114 113.499 109.884 112.254 110.701" stroke="black" stroke-width="6"/>
<path d="M129.104 104.311C130.516 105.32 131.547 106.082 133.426 104.996C134.324 107.836 135.902 110.381 137.674 112.918C138.226 113.592 137.571 114.428 138.255 115.526C138.661 116.185 139.063 116.831 139.563 117.743" fill="white"/>
<path d="M129.104 104.311C130.516 105.32 131.547 106.082 133.426 104.996C134.324 107.836 135.902 110.381 137.674 112.918C138.226 113.592 137.571 114.428 138.255 115.526C138.661 116.185 139.063 116.831 139.563 117.743" stroke="black" stroke-width="6"/>
<path d="M117.563 112.267L121.671 110.515L127.115 110.054L129.17 111.806L129.58 115.31" fill="white"/>
<path d="M117.563 112.267L121.671 110.515L127.115 110.054L129.17 111.806L129.58 115.31" stroke="black" stroke-width="6"/>
<path d="M131.737 117.615C131.278 116.921 130.919 116.136 130.094 115.771C129.373 115.238 128.699 115.488 128.07 115.527C127.121 115.743 126.754 115.961 126.112 116.069C125.176 116.216 124.787 115.775 123.786 115.863C122.155 116.142 121.271 116.614 120.088 116.774C118.47 117.085 117.83 117.396 117.46 117.707C116.86 118.256 116.49 118.954 116.62 119.557C117.058 120.641 117.947 121.32 118.753 122.074C120.039 123.089 122.173 123.4 124.034 123.701C125.922 124.049 127.581 124.51 128.759 123.977C130.532 123.118 131.108 122.177 131.635 121.027" fill="white"/>
<path d="M131.737 117.615C131.278 116.921 130.919 116.136 130.094 115.771C129.373 115.238 128.699 115.488 128.07 115.527C127.121 115.743 126.754 115.961 126.112 116.069C125.176 116.216 124.787 115.775 123.786 115.863C122.155 116.142 121.271 116.614 120.088 116.774C118.47 117.085 117.83 117.396 117.46 117.707C116.86 118.256 116.49 118.954 116.62 119.557C117.058 120.641 117.947 121.32 118.753 122.074C120.039 123.089 122.173 123.4 124.034 123.701C125.922 124.049 127.581 124.51 128.759 123.977C130.532 123.118 131.108 122.177 131.635 121.027" stroke="black" stroke-width="6"/>
<path d="M122.552 117.373C122.186 117.785 121.873 119.085 122.074 119.671C122.311 120.428 122.763 121.057 123.815 121.326C125.006 121.548 126.108 121.479 127.026 120.805C127.634 120.051 127.961 119.228 127.572 118.231C127.291 117.543 126.86 116.99 126.035 116.79C124.436 116.329 123.332 116.609 122.552 117.373Z" fill="white" stroke="black" stroke-width="3"/>
<path d="M154.815 105.746C153.203 106.237 151.911 106.855 151.038 108.614C149.558 112.247 150.048 113.696 150.312 116.178C150.611 117.822 151.358 119.063 152.2 120.22C155.241 123.719 157.748 126.432 159.753 129.87C160.94 132.076 161.182 133.47 163.24 135.999C165.44 138.478 166.773 138.233 168.178 138.216C169.123 138.097 169.699 137.789 170.357 137.564C171.333 137.198 172.072 137.138 173.117 137.825C175.125 139.233 175.366 140.054 175.732 141.215C176.07 142.78 175.769 144.489 175.587 146.171C175.17 148.465 174.054 149.504 172.972 150.605C171.687 151.805 170.307 152.707 168.614 153.604C166.287 154.86 163.599 155.884 160.753 156.326" fill="white"/>
<path d="M154.815 105.746C153.203 106.237 151.911 106.855 151.038 108.614C149.558 112.247 150.048 113.696 150.312 116.178C150.611 117.822 151.358 119.063 152.2 120.22C155.241 123.719 157.748 126.432 159.753 129.87C160.94 132.076 161.182 133.47 163.24 135.999C165.44 138.478 166.773 138.233 168.178 138.216C169.123 138.097 169.699 137.789 170.357 137.564C171.333 137.198 172.072 137.138 173.117 137.825C175.125 139.233 175.366 140.054 175.732 141.215C176.07 142.78 175.769 144.489 175.587 146.171C175.17 148.465 174.054 149.504 172.972 150.605C171.687 151.805 170.307 152.707 168.614 153.604C166.287 154.86 163.599 155.884 160.753 156.326" stroke="black" stroke-width="6"/>
<path d="M132.3 89.4451C131.542 91.5581 131.682 93.4412 131.864 95.3133C131.872 97.0397 132.387 98.2207 133.317 99.6166C134.339 101.176 136.495 101.903 138.401 102.485C141.827 103.484 143.267 104.175 143.775 105.746C143.868 106.691 143.308 107.248 142.425 107.84C143.708 107.905 144.348 108.028 145.501 106.566C146.384 105.143 145.163 103.888 144.261 103.168C142.49 101.764 142.776 101.147 143.775 100.008C144.828 98.9451 146.553 98.9694 147.988 97.5301C149.33 95.905 150.29 94.1574 149.731 91.9228C149.352 90.3092 147.99 89.2842 146.39 88.4018C143.035 86.7596 139.707 84.844 136.222 84.4897" fill="white"/>
<path d="M132.3 89.4451C131.542 91.5581 131.682 93.4412 131.864 95.3133C131.872 97.0397 132.387 98.2207 133.317 99.6166C134.339 101.176 136.495 101.903 138.401 102.485C141.827 103.484 143.267 104.175 143.775 105.746C143.868 106.691 143.308 107.248 142.425 107.84C143.708 107.905 144.348 108.028 145.501 106.566C146.384 105.143 145.163 103.888 144.261 103.168C142.49 101.764 142.776 101.147 143.775 100.008C144.828 98.9451 146.553 98.9694 147.988 97.5301C149.33 95.905 150.29 94.1574 149.731 91.9228C149.352 90.3092 147.99 89.2842 146.39 88.4018C143.035 86.7596 139.707 84.844 136.222 84.4897" stroke="black" stroke-width="6"/>
<path d="M134.551 85.9242C136.914 86.3876 138.657 87.6941 139.858 89.0268C140.706 90.0918 141.618 90.8097 141.727 91.9833C141.677 93.4362 141.685 93.3663 141.178 95.0412" fill="white"/>
<path d="M134.551 85.9242C136.914 86.3876 138.657 87.6941 139.858 89.0268C140.706 90.0918 141.618 90.8097 141.727 91.9833C141.677 93.4362 141.685 93.3663 141.178 95.0412" stroke="black" stroke-width="6"/>
<path d="M158.156 98.5733C155.892 100.058 156.131 101.093 156.558 102.094C157.062 103.1 157.587 104.189 159.027 104.963C160.975 106.241 161.135 107.89 161.351 109.527C161.379 110.403 161.315 111.114 161.206 111.744C161.08 112.824 160.726 113.633 160.189 114.222C159.726 114.663 159.354 114.939 159.027 115.135" fill="white"/>
<path d="M158.156 98.5733C155.892 100.058 156.131 101.093 156.558 102.094C157.062 103.1 157.587 104.189 159.027 104.963C160.975 106.241 161.135 107.89 161.351 109.527C161.379 110.403 161.315 111.114 161.206 111.744C161.08 112.824 160.726 113.633 160.189 114.222C159.726 114.663 159.354 114.939 159.027 115.135" stroke="black" stroke-width="6"/>
<path d="M162.14 119.182C162.246 118.326 162.126 117.424 161.01 116.324C160.056 115.852 159.291 115.253 157.826 115.125C156.559 114.977 155.293 115.2 154.026 115.54C152.961 115.797 151.887 116.091 150.688 116.831" fill="white"/>
<path d="M162.14 119.182C162.246 118.326 162.126 117.424 161.01 116.324C160.056 115.852 159.291 115.253 157.826 115.125C156.559 114.977 155.293 115.2 154.026 115.54C152.961 115.797 151.887 116.091 150.688 116.831" stroke="black" stroke-width="6"/>
<path d="M153.552 116.944C153.16 117.036 152.836 117.214 152.725 117.669C152.661 118.093 152.655 118.543 152.775 118.989C153.109 119.7 153.389 119.72 153.727 119.766C154.317 119.768 154.561 119.511 154.904 119.274C155.255 118.793 155.314 118.455 155.279 118.109C155.201 117.736 155.253 117.349 154.753 117.022C154.406 116.88 153.952 116.878 153.552 116.944H153.552Z" fill="white" stroke="black"/>
<path d="M159.851 120.182C160.643 121.985 161.727 126.098 162.243 127.942C162.46 128.69 162.653 129.449 162.962 130.155C163.24 130.874 163.439 131.607 163.475 132.368C163.5 133.015 163.259 133.527 163.27 134.213C163.342 135.082 163.68 135.873 163.886 136.702" fill="white"/>
<path d="M159.851 120.182C160.643 121.985 161.727 126.098 162.243 127.942C162.46 128.69 162.653 129.449 162.962 130.155C163.24 130.874 163.439 131.607 163.475 132.368C163.5 133.015 163.259 133.527 163.27 134.213C163.342 135.082 163.68 135.873 163.886 136.702" stroke="black" stroke-width="6"/>
<path d="M133.381 144.817C132.629 143.331 131.891 141.84 131.943 140.114C131.71 138.783 132.388 137.542 133.381 136.333C134.279 135.366 135.93 134.702 137.592 134.535C139.521 134.391 141.274 134.516 143.036 134.95C144.779 135.321 146.108 136.065 147.452 136.794C148.527 137.527 149.09 138.333 150.842 139.1C152.318 139.617 152.994 139.99 153.82 140.391C154.873 141.067 155.594 141.743 156.388 142.419C158.387 143.789 159.167 143.647 160.189 143.71" fill="white"/>
<path d="M133.381 144.817C132.629 143.331 131.891 141.84 131.943 140.114C131.71 138.783 132.388 137.542 133.381 136.333C134.279 135.366 135.93 134.702 137.592 134.535C139.521 134.391 141.274 134.516 143.036 134.95C144.779 135.321 146.108 136.065 147.452 136.794C148.527 137.527 149.09 138.333 150.842 139.1C152.318 139.617 152.994 139.99 153.82 140.391C154.873 141.067 155.594 141.743 156.388 142.419C158.387 143.789 159.167 143.647 160.189 143.71" stroke="black" stroke-width="6"/>
<path d="M134.305 142.788C134.134 142.143 134.168 141.436 134.408 140.667C134.691 140.001 135.12 139.367 135.949 138.823C136.617 138.476 137.437 138.31 138.516 138.454C139.119 138.625 139.693 138.902 140.16 139.561" fill="white"/>
<path d="M134.305 142.788C134.134 142.143 134.168 141.436 134.408 140.667C134.691 140.001 135.12 139.367 135.949 138.823C136.617 138.476 137.437 138.31 138.516 138.454C139.119 138.625 139.693 138.902 140.16 139.561" stroke="black" stroke-width="6"/>
<path d="M140.514 142.607C141.428 143.058 142.497 144.362 142.449 144.984C142.686 145.591 142.045 146.125 141.495 146.2C140.588 146.215 140.19 145.808 139.646 145.37C139.05 144.878 138.702 144.421 138.981 143.651C139.201 143.104 139.765 142.804 140.468 142.604C141.235 142.485 141.941 142.344 142.909 142.554C144.327 142.867 145.154 143.422 145.912 143.987C146.707 144.687 147.466 145.42 148.069 146.292C148.51 146.981 149.044 147.444 149.712 149.151C149.79 149.509 149.843 150.207 149.815 150.902" fill="white"/>
<path d="M140.514 142.607C141.428 143.058 142.497 144.362 142.449 144.984C142.686 145.591 142.045 146.125 141.495 146.2C140.588 146.215 140.19 145.808 139.646 145.37C139.05 144.878 138.702 144.421 138.981 143.651C139.201 143.104 139.765 142.804 140.468 142.604C141.235 142.485 141.941 142.344 142.909 142.554C144.327 142.867 145.154 143.422 145.912 143.987C146.707 144.687 147.466 145.42 148.069 146.292C148.51 146.981 149.044 147.444 149.712 149.151C149.79 149.509 149.843 150.207 149.815 150.902" stroke="black" stroke-width="6"/>
<path d="M121.696 148.648C123.111 148.944 124.478 148.935 125.618 150.344C126.83 151.818 128.049 154.64 129.54 156.603C130.938 158.58 131.779 160.542 133.607 162.602C135.551 164.531 137.668 165.801 139.998 166.253C142.098 166.592 144.077 166.439 146.39 166.123C148.941 165.798 151.487 165.435 153.943 164.427C156.207 163.732 158.463 164.079 160.916 163.906C163.082 163.757 164.346 164.779 167.597 164.297C169.071 164.01 170.508 163.836 171.519 162.21C171.98 161.117 172.513 160.036 171.374 158.689C170.658 157.906 169.572 157.774 168.905 157.385C167.659 156.561 167.222 155.463 166.726 154.386" fill="white"/>
<path d="M121.696 148.648C123.111 148.944 124.478 148.935 125.618 150.344C126.83 151.818 128.049 154.64 129.54 156.603C130.938 158.58 131.779 160.542 133.607 162.602C135.551 164.531 137.668 165.801 139.998 166.253C142.098 166.592 144.077 166.439 146.39 166.123C148.941 165.798 151.487 165.435 153.943 164.427C156.207 163.732 158.463 164.079 160.916 163.906C163.082 163.757 164.346 164.779 167.597 164.297C169.071 164.01 170.508 163.836 171.519 162.21C171.98 161.117 172.513 160.036 171.374 158.689C170.658 157.906 169.572 157.774 168.905 157.385C167.659 156.561 167.222 155.463 166.726 154.386" stroke="black" stroke-width="6"/>
<path d="M117.358 147.214C116.644 145.818 117.456 145.107 120.028 145.185Z" fill="white"/>
<path d="M117.358 147.214C116.644 145.818 117.456 145.107 120.028 145.185" stroke="black" stroke-width="6"/>
<path d="M108.627 137.993C107.635 136.641 106.775 135.288 106.265 133.936C105.62 132.399 105.1 130.862 105.032 129.325C104.992 127.263 105.643 125.512 105.956 123.608" fill="white"/>
<path d="M108.627 137.993C107.635 136.641 106.775 135.288 106.265 133.936C105.62 132.399 105.1 130.862 105.032 129.325C104.992 127.263 105.643 125.512 105.956 123.608" stroke="black" stroke-width="6"/>
<path d="M94.3499 139.376C94.0168 140.933 93.8136 142.547 94.2472 144.448C94.8224 146.483 95.2432 147.15 95.0689 148.321C94.8604 149.15 94.4501 149.589 94.5553 150.81C94.6185 151.87 95.1488 152.175 95.6852 152.47C96.662 152.97 97.0174 153.948 97.3286 154.96C97.6259 156.09 97.9263 157.219 99.0747 158.095C100.58 158.835 100.853 159.87 100.923 160.953C101.014 163.082 102.61 163.769 104.108 164.549C104.806 165.041 105.621 165.008 105.956 167.131C106.193 168.978 106.669 170.611 108.627 170.912C109.989 171.125 110.541 171.615 110.476 173.77C110.556 174.667 110.512 175.477 114.276 175.246C116.13 175.118 116.74 177.444 115.406 178.842C114.685 179.487 114.342 180.238 113.865 180.871C113.342 181.72 113.209 182.608 113.557 183.545C113.935 184.909 115.812 185.196 117.049 185.942C118.355 186.891 119.786 187.098 120.85 188.063C122.206 189.278 122.836 190.09 122.596 191.843C122.233 193.794 121.398 193.977 120.439 194.241C118.274 194.908 118.004 195.455 117.671 196.02C116.916 197.521 118.236 198.337 118.59 199.405" fill="white"/>
<path d="M94.3499 139.376C94.0168 140.933 93.8136 142.547 94.2472 144.448C94.8224 146.483 95.2432 147.15 95.0689 148.321C94.8604 149.15 94.4501 149.589 94.5553 150.81C94.6185 151.87 95.1488 152.175 95.6852 152.47C96.662 152.97 97.0174 153.948 97.3286 154.96C97.6259 156.09 97.9263 157.219 99.0747 158.095C100.58 158.835 100.853 159.87 100.923 160.953C101.014 163.082 102.61 163.769 104.108 164.549C104.806 165.041 105.621 165.008 105.956 167.131C106.193 168.978 106.669 170.611 108.627 170.912C109.989 171.125 110.541 171.615 110.476 173.77C110.556 174.667 110.512 175.477 114.276 175.246C116.13 175.118 116.74 177.444 115.406 178.842C114.685 179.487 114.342 180.238 113.865 180.871C113.342 181.72 113.209 182.608 113.557 183.545C113.935 184.909 115.812 185.196 117.049 185.942C118.355 186.891 119.786 187.098 120.85 188.063C122.206 189.278 122.836 190.09 122.596 191.843C122.233 193.794 121.398 193.977 120.439 194.241C118.274 194.908 118.004 195.455 117.671 196.02C116.916 197.521 118.236 198.337 118.59 199.405" stroke="black" stroke-width="6"/>
<path d="M81.3144 143.302C80.8537 146.605 80.7593 149.909 80.8786 153.213C81.2352 158.31 81.1955 162.424 82.9122 166.775C84.5227 170.678 86.4828 174.346 88.8678 177.729C92.2429 182.039 96.5953 184.887 100.488 188.422" fill="white"/>
<path d="M81.3144 143.302C80.8537 146.605 80.7593 149.909 80.8786 153.213C81.2352 158.31 81.1955 162.424 82.9122 166.775C84.5227 170.678 86.4828 174.346 88.8678 177.729C92.2429 182.039 96.5953 184.887 100.488 188.422" stroke="black" stroke-width="6"/>
<path d="M120.461 187.77C120.081 186.232 119.379 184.79 119.808 183.01C120.048 181.353 121.694 181.066 122.858 179.75C122.777 181.596 123.279 183.076 124.165 184.314C125.705 186.074 126.077 187.179 126.925 188.552C127.624 189.582 128.806 190.698 129.976 191.812C130.684 192.421 131.382 193.041 132.372 193.312C132.374 195.063 133.073 196.537 133.752 198.071C134.111 198.84 134.465 199.357 134.733 200.288C136.421 200.537 137.929 201.164 139.345 201.821C140.035 202.149 140.652 202.51 141.378 202.701C141.462 200.565 139.879 198.977 140.071 197.093C141.672 198.377 145.402 200.616 148.206 202.44C147.766 201.27 147.228 199.457 145.561 197.948C147.594 198.524 149.331 198.589 151.764 199.115C150.3 197.779 148.593 196.583 147.479 195.203C146.625 194.094 145.844 192.986 145.373 191.877C144.971 190.419 145.86 189.697 146.462 188.813C146.54 189.639 146.214 190.465 146.898 191.29C147.608 192.177 147.903 192.193 148.351 192.529C148.291 191.82 148.483 191.261 149.004 190.899C149.726 190.448 150.487 190.049 151.401 189.856C152.012 189.139 152.873 188.422 153.871 187.704C154.642 186.832 155.366 186.113 155.287 184.64C155.09 183.605 154.983 182.64 154.161 181.445C153.521 180.725 153.034 179.97 152.781 179.163C152.498 178.183 153.007 177.519 153.58 176.881C154.354 176.044 154.613 175.439 154.815 174.86" fill="white"/>
<path d="M120.461 187.77C120.081 186.232 119.379 184.79 119.808 183.01C120.048 181.353 121.694 181.066 122.858 179.75C122.777 181.596 123.279 183.076 124.165 184.314C125.705 186.074 126.077 187.179 126.925 188.552C127.624 189.582 128.806 190.698 129.976 191.812C130.684 192.421 131.382 193.041 132.372 193.312C132.374 195.063 133.073 196.537 133.752 198.071C134.111 198.84 134.465 199.357 134.733 200.288C136.421 200.537 137.929 201.164 139.345 201.821C140.035 202.149 140.652 202.51 141.378 202.701C141.462 200.565 139.879 198.977 140.071 197.093C141.672 198.377 145.402 200.616 148.206 202.44C147.766 201.27 147.228 199.457 145.561 197.948C147.594 198.524 149.331 198.589 151.764 199.115C150.3 197.779 148.593 196.583 147.479 195.203C146.625 194.094 145.844 192.986 145.373 191.877C144.971 190.419 145.86 189.697 146.462 188.813C146.54 189.639 146.214 190.465 146.898 191.29C147.608 192.177 147.903 192.193 148.351 192.529C148.291 191.82 148.483 191.261 149.004 190.899C149.726 190.448 150.487 190.049 151.401 189.856C152.012 189.139 152.873 188.422 153.871 187.704C154.642 186.832 155.366 186.113 155.287 184.64C155.09 183.605 154.983 182.64 154.161 181.445C153.521 180.725 153.034 179.97 152.781 179.163C152.498 178.183 153.007 177.519 153.58 176.881C154.354 176.044 154.613 175.439 154.815 174.86" stroke="black" stroke-width="6"/>
<path d="M138.836 176.098C140.274 175.952 142.038 175.503 143.049 175.772C144.372 176.152 144.981 176.096 147.116 175.838C148.203 175.626 149.011 175.229 150.457 174.925C152.365 174.682 153.595 174.56 155.105 174.729C156.545 174.888 158.426 174.738 160.48 174.468C161.342 174.331 161.608 174.16 163.458 174.077C164.328 173.993 165.102 173.622 165.564 172.317C165.887 171.351 166.16 170.313 166.145 168.861C166.08 167.978 166.215 167.223 165.709 166.057C165.415 165.26 165.214 164.878 164.983 164.362" fill="white"/>
<path d="M138.836 176.098C140.274 175.952 142.038 175.503 143.049 175.772C144.372 176.152 144.981 176.096 147.116 175.838C148.203 175.626 149.011 175.229 150.457 174.925C152.365 174.682 153.595 174.56 155.105 174.729C156.545 174.888 158.426 174.738 160.48 174.468C161.342 174.331 161.608 174.16 163.458 174.077C164.328 173.993 165.102 173.622 165.564 172.317C165.887 171.351 166.16 170.313 166.145 168.861C166.08 167.978 166.215 167.223 165.709 166.057C165.415 165.26 165.214 164.878 164.983 164.362" stroke="black" stroke-width="6"/>
<path d="M130.992 192.464L128.378 196.767L126.199 199.636L127.216 202.636" fill="white"/>
<path d="M130.992 192.464L128.378 196.767L126.199 199.636L127.216 202.636" stroke="black" stroke-width="6"/>
<path d="M134.385 199.121C134.182 200.428 134.028 202.354 134.769 203.418C136.233 204.896 137.338 205.932 138.546 206.417" fill="white"/>
<path d="M134.385 199.121C134.182 200.428 134.028 202.354 134.769 203.418C136.233 204.896 137.338 205.932 138.546 206.417" stroke="black" stroke-width="6"/>
<path d="M151.293 198.746C152.61 199.65 154.838 200.658 156.703 201.071C158.462 200.593 159.056 200.114 159.463 199.636" fill="white"/>
<path d="M151.293 198.746C152.61 199.65 154.838 200.658 156.703 201.071C158.462 200.593 159.056 200.114 159.463 199.636" stroke="black" stroke-width="6"/>
<path d="M145.295 178.473C148.421 178.033 150.486 176.886 152.588 178.196Z" fill="white"/>
<path d="M145.295 178.473C148.421 178.033 150.486 176.886 152.588 178.196" stroke="black" stroke-width="6"/>
<path d="M138.329 188.431C137.195 192.188 139.146 196.67 141.674 198.249Z" fill="white"/>
<path d="M138.329 188.431C137.195 192.188 139.146 196.67 141.674 198.249" stroke="black" stroke-width="6"/>
</svg>
